<svg width="16" height="19" viewBox="0 0 16 19" fill="none" xmlns="http://www.w3.org/2000/svg">
<path d="M2.87851 0.666992H13.124C13.4642 0.666992 13.7935 0.736778 14.0945 0.861085C14.4063 0.991934 14.6876 1.17948 14.921 1.41501C15.1543 1.64836 15.3441 1.92751 15.4727 2.23936C15.5992 2.54032 15.6668 2.86962 15.6668 3.21201V16.3144C15.6668 16.6568 15.5992 16.9839 15.4727 17.2848C15.3441 17.5967 15.1543 17.878 14.921 18.1114C14.6876 18.3447 14.4063 18.5344 14.0945 18.6631C13.7935 18.7896 13.4642 18.8594 13.124 18.8594H2.87851C2.53612 18.8594 2.20682 18.7896 1.90587 18.6631C1.59401 18.5344 1.31486 18.3447 1.08152 18.1114C0.845988 17.878 0.658438 17.5967 0.527589 17.2848C0.403282 16.9839 0.333496 16.6568 0.333496 16.3144V3.21201C0.333496 2.86962 0.403282 2.54032 0.527589 2.23936C0.658438 1.92751 0.845988 1.64836 1.08152 1.41501C1.31486 1.17948 1.59401 0.991934 1.90587 0.861085C2.20682 0.736778 2.53612 0.666992 2.87851 0.666992ZM13.124 1.58948H2.87851C2.65825 1.58948 2.44889 1.63309 2.25916 1.7116C2.06288 1.79448 1.88406 1.9166 1.73358 2.06708C1.5831 2.21755 1.46098 2.39638 1.37811 2.59265C1.2996 2.78239 1.25598 2.99174 1.25598 3.21201V16.3144C1.25598 16.5346 1.2996 16.7418 1.37811 16.9315C1.46098 17.13 1.5831 17.3088 1.73358 17.4593C1.88406 17.6098 2.06288 17.7319 2.25916 17.8126C2.44889 17.8911 2.65825 17.9347 2.87851 17.9347H13.124C13.3421 17.9347 13.5514 17.8911 13.7412 17.8126C13.9374 17.7319 14.1163 17.6098 14.2667 17.4593C14.4194 17.3088 14.5393 17.13 14.6222 16.9315C14.7007 16.7418 14.7443 16.5346 14.7443 16.3144V3.21201C14.7443 2.99174 14.7007 2.78239 14.6222 2.59265C14.5393 2.39638 14.4194 2.21755 14.2667 2.06708C14.1163 1.9166 13.9374 1.79448 13.7412 1.7116C13.5514 1.63309 13.3421 1.58948 13.124 1.58948Z" fill="#A3A3A3"/>
<path d="M2.91776 2.91553H4.95682C5.13565 2.91553 5.29485 2.98749 5.41261 3.10308C5.43726 3.12867 5.46026 3.15592 5.4809 3.18463C5.52656 3.24817 5.49682 3.33269 5.42879 3.37135L5.39562 3.39019C5.32607 3.42971 5.23801 3.39081 5.18145 3.33424C5.12474 3.27754 5.04405 3.24265 4.95682 3.24265H2.91776C2.83052 3.24265 2.74983 3.27754 2.69313 3.33424C2.63643 3.39313 2.60154 3.47164 2.60154 3.55887V5.60012C2.60154 5.68517 2.63643 5.76586 2.69313 5.82256C2.75201 5.87926 2.83052 5.91633 2.91776 5.91633H4.95682C5.04405 5.91633 5.12474 5.87926 5.18145 5.82256C5.23815 5.76586 5.27304 5.68735 5.27304 5.60012V4.19018C5.27304 4.15016 5.28771 4.11153 5.31427 4.08161C5.41415 3.96908 5.60016 4.03972 5.60016 4.19018V5.60012C5.60016 5.77458 5.5282 5.93596 5.41261 6.05373C5.29485 6.16931 5.13347 6.24346 4.95682 6.24346H2.91776C2.73893 6.24346 2.57973 6.16931 2.46196 6.05373C2.34638 5.93814 2.27441 5.77676 2.27441 5.60012V3.55887C2.27441 3.38222 2.34638 3.22084 2.46196 3.10526L2.46415 3.10308C2.57973 2.98749 2.74111 2.91553 2.91776 2.91553Z" fill="#A3A3A3"/>
<path d="M2.91776 13.416H4.95682C5.13347 13.416 5.29485 13.488 5.41261 13.6057C5.44831 13.6414 5.47946 13.681 5.50571 13.7238C5.54368 13.7857 5.51441 13.8633 5.45127 13.8991L5.43413 13.9088C5.35358 13.9545 5.24693 13.9024 5.18145 13.8369C5.12474 13.778 5.04405 13.7431 4.95682 13.7431H2.91776C2.83052 13.7431 2.75201 13.7802 2.69313 13.8369C2.63643 13.8936 2.60154 13.9721 2.60154 14.0594V16.1006C2.60154 16.1878 2.63643 16.2663 2.69313 16.3252C2.74983 16.3819 2.83052 16.4168 2.91776 16.4168H4.95682C5.04405 16.4168 5.12474 16.3819 5.18145 16.323C5.23815 16.2663 5.27304 16.1878 5.27304 16.1006V14.7299C5.27304 14.6899 5.28771 14.6513 5.31427 14.6213C5.41415 14.5088 5.60016 14.5795 5.60016 14.7299V16.1006C5.60016 16.2772 5.5282 16.4386 5.41261 16.5542C5.29485 16.672 5.13565 16.7439 4.95682 16.7439H2.91776C2.7415 16.7439 2.58044 16.6723 2.46491 16.555C2.46442 16.5545 2.46375 16.5542 2.46305 16.5542C2.46235 16.5542 2.46169 16.5539 2.4612 16.5534C2.34606 16.4379 2.27441 16.2769 2.27441 16.1006V14.0594C2.27441 13.8827 2.34638 13.7213 2.46196 13.6057C2.57973 13.488 2.73893 13.416 2.91776 13.416Z" fill="#A3A3A3"/>
<path d="M2.91776 8.16455H4.95682C5.13347 8.16455 5.29485 8.2387 5.41261 8.35428C5.443 8.38467 5.47015 8.4183 5.49379 8.45437C5.53489 8.51707 5.5058 8.59794 5.44071 8.63513L5.41554 8.64951C5.34046 8.69242 5.24259 8.6466 5.18145 8.58545C5.12474 8.52875 5.04405 8.49167 4.95682 8.49167H2.91776C2.83052 8.49167 2.75201 8.52875 2.69313 8.58545C2.63643 8.64215 2.60154 8.72284 2.60154 8.80789V10.8491C2.60154 10.9364 2.63643 11.0149 2.69313 11.0738C2.74983 11.1305 2.83052 11.1654 2.91776 11.1654H4.95682C5.04405 11.1654 5.12474 11.1305 5.18145 11.0738C5.23815 11.0149 5.27304 10.9364 5.27304 10.8491V9.46101C5.27304 9.42099 5.28771 9.38237 5.31427 9.35244C5.41415 9.23991 5.60016 9.31055 5.60016 9.46101V10.8491C5.60016 11.028 5.5282 11.1872 5.41261 11.3049C5.29485 11.4205 5.13565 11.4925 4.95682 11.4925H2.91776C2.74111 11.4925 2.57973 11.4205 2.46415 11.3049L2.46196 11.3027C2.34638 11.1872 2.27441 11.0258 2.27441 10.8491V8.80789C2.27441 8.63125 2.34638 8.46987 2.46196 8.35428C2.57973 8.2387 2.73893 8.16455 2.91776 8.16455Z" fill="#A3A3A3"/>
<path d="M6.90443 4.78662H13.3575C13.5603 4.78662 13.7282 4.95454 13.7282 5.15736V5.17699C13.7282 5.38198 13.5603 5.54773 13.3575 5.54773H6.90443C6.70161 5.54773 6.53369 5.38198 6.53369 5.17699V5.15736C6.53369 4.95454 6.70161 4.78662 6.90443 4.78662Z" fill="#A3A3A3"/>
<path d="M6.90443 3.60889H13.3575C13.5603 3.60889 13.7282 3.77463 13.7282 3.97963V3.99925C13.7282 4.20207 13.5603 4.36999 13.3575 4.36999H6.90443C6.70161 4.36999 6.53369 4.20207 6.53369 3.99925V3.97963C6.53369 3.77463 6.70161 3.60889 6.90443 3.60889Z" fill="#A3A3A3"/>
<path d="M6.90443 10.0381H13.3575C13.5603 10.0381 13.7282 10.206 13.7282 10.4088V10.4285C13.7282 10.6334 13.5603 10.7992 13.3575 10.7992H6.90443C6.70161 10.7992 6.53369 10.6334 6.53369 10.4285V10.4088C6.53369 10.206 6.70161 10.0381 6.90443 10.0381Z" fill="#A3A3A3"/>
<path d="M6.90443 8.86035H13.3575C13.5603 8.86035 13.7282 9.02609 13.7282 9.23109V9.25072C13.7282 9.45353 13.5603 9.62146 13.3575 9.62146H6.90443C6.70161 9.62146 6.53369 9.45353 6.53369 9.25072V9.23109C6.53369 9.02609 6.70161 8.86035 6.90443 8.86035Z" fill="#A3A3A3"/>
<path d="M6.90443 15.2896H13.3575C13.5603 15.2896 13.7282 15.4553 13.7282 15.6603V15.6799C13.7282 15.8827 13.5603 16.0507 13.3575 16.0507H6.90443C6.70161 16.0507 6.53369 15.8827 6.53369 15.6799V15.6603C6.53369 15.4553 6.70161 15.2896 6.90443 15.2896Z" fill="#A3A3A3"/>
<path d="M6.90443 14.1099H13.3575C13.5603 14.1099 13.7282 14.2778 13.7282 14.4806V14.5002C13.7282 14.7052 13.5603 14.871 13.3575 14.871H6.90443C6.70161 14.871 6.53369 14.7052 6.53369 14.5002V14.4806C6.53369 14.2778 6.70161 14.1099 6.90443 14.1099Z" fill="#A3A3A3"/>
<path d="M3.77689 4.63058C3.71859 4.67055 3.64385 4.67777 3.57898 4.64969C3.39819 4.57145 3.22151 4.76773 3.31827 4.93932L3.41115 5.10405C3.49586 5.25427 3.698 5.2872 3.82601 5.17163L6.47248 2.78223L3.77689 4.63058Z" fill="#A3A3A3"/>
<path d="M3.77703 9.90162C3.71868 9.94169 3.64379 9.94884 3.57891 9.92054C3.39851 9.84188 3.22158 10.0377 3.31809 10.2092L3.41134 10.375C3.49591 10.5253 3.69809 10.5583 3.82604 10.4426L6.47248 8.05127L3.77703 9.90162Z" fill="#A3A3A3"/>
<path d="M3.77689 15.1706C3.71859 15.2106 3.64385 15.2178 3.57898 15.1897C3.39819 15.1115 3.22151 15.3078 3.31827 15.4794L3.41115 15.6441C3.49586 15.7943 3.698 15.8272 3.82601 15.7117L6.47248 13.3223L3.77689 15.1706Z" fill="#A3A3A3"/>
</svg>
