<svg width="24" height="20" viewBox="0 0 24 20" fill="none" xmlns="http://www.w3.org/2000/svg">
<path d="M3.90642 7.51307C3.90642 6.21091 2.85081 5.1553 1.54865 5.1553C1.42893 5.1553 1.31654 5.13087 1.21148 5.08689C1.18913 5.07673 1.1651 5.06658 1.14219 5.05502C1.13404 5.0509 1.12408 5.05255 1.11794 5.05931C1.11034 5.06767 1.09729 5.06798 1.08929 5.05999L0.925614 4.89631C0.844985 4.81568 0.779017 4.71795 0.735038 4.61045C0.691059 4.50539 0.666626 4.39055 0.666626 4.27327V2.6998C0.666626 2.42615 0.722821 2.16472 0.820553 1.92528C0.925614 1.67607 1.0771 1.45129 1.26279 1.26315C1.45092 1.07746 1.6757 0.92598 1.92492 0.820919C2.16436 0.723188 2.42579 0.666992 2.69944 0.666992H4.33643H15.2237C15.424 0.666992 15.6171 0.708528 15.7954 0.781826C15.9787 0.857568 16.1448 0.969959 16.2816 1.10678C16.4209 1.24605 16.5308 1.40975 16.609 1.59544C16.6823 1.77136 16.7239 1.96437 16.7239 2.16717V9.27956C16.7239 9.30858 16.7181 9.33732 16.7068 9.36407L16.7043 9.36996L16.3476 10.2666C16.2456 10.5236 15.8638 10.4502 15.8638 10.1738V2.16717C15.8638 2.07921 15.8467 1.99858 15.815 1.92284C15.7832 1.84465 15.7343 1.77624 15.6757 1.71516C15.6146 1.65652 15.5462 1.60766 15.4656 1.57589C15.3923 1.54413 15.3092 1.52703 15.2237 1.52703H4.37474C4.36826 1.52703 4.36472 1.53458 4.36887 1.53956L4.36982 1.5407C4.37035 1.54134 4.37064 1.54214 4.37064 1.54297C4.37064 1.54372 4.37088 1.54446 4.37133 1.54507L4.40316 1.58826C4.40425 1.58975 4.40485 1.59155 4.40485 1.5934C4.40485 1.59474 4.40516 1.59606 4.40576 1.59727L4.40633 1.59841C4.40697 1.59968 4.4078 1.60084 4.40881 1.60184C4.40942 1.60246 4.40998 1.60313 4.41046 1.60386L4.4135 1.60842C4.41425 1.60954 4.4151 1.61058 4.41604 1.61152C4.41672 1.6122 4.41735 1.61293 4.41793 1.6137L4.42293 1.62036C4.42388 1.62163 4.42439 1.62317 4.42439 1.62476V1.62574C4.42439 1.62655 4.42504 1.6272 4.42585 1.6272C4.42644 1.6272 4.42698 1.62756 4.4272 1.62812L4.43136 1.6385C4.43158 1.63906 4.43211 1.63942 4.43271 1.63942C4.43351 1.63942 4.43417 1.64007 4.43417 1.64087V1.64186C4.43417 1.64346 4.4346 1.64503 4.43542 1.6464L4.44089 1.65552C4.44127 1.65614 4.44194 1.65652 4.44266 1.65652C4.44344 1.65652 4.44416 1.65696 4.44451 1.65766L4.44593 1.6605C4.44623 1.6611 4.44638 1.66175 4.44638 1.66242C4.44638 1.66335 4.44668 1.66425 4.44724 1.665L4.45294 1.6726C4.45344 1.67326 4.45371 1.67407 4.45371 1.6749C4.45371 1.67566 4.45394 1.6764 4.45436 1.67703L4.4586 1.6834L4.46507 1.69203C4.46563 1.69277 4.46593 1.69367 4.46593 1.6946C4.46593 1.69527 4.46608 1.69592 4.46638 1.69652L4.47027 1.70429C4.4706 1.70496 4.47129 1.70539 4.47204 1.70539C4.47278 1.70539 4.47347 1.70581 4.4738 1.70648L4.47775 1.71437C4.47801 1.71489 4.47814 1.71546 4.47814 1.71605C4.47814 1.71704 4.47854 1.718 4.47924 1.7187L4.48141 1.72087C4.48248 1.72194 4.48332 1.72321 4.48388 1.72462L4.48792 1.73471L4.49036 1.73959L4.4928 1.74448L4.5019 1.75812C4.50234 1.75879 4.50258 1.75956 4.50258 1.76036C4.50258 1.76116 4.50281 1.76194 4.50325 1.7626L4.51149 1.77495C4.51199 1.7757 4.51189 1.7767 4.51125 1.77734C4.51051 1.77808 4.51051 1.77929 4.51125 1.78003L4.51206 1.78084C4.51225 1.78103 4.51242 1.78125 4.51255 1.78148L4.52144 1.79703C4.52189 1.79782 4.52212 1.79871 4.52212 1.79961C4.52212 1.80031 4.52227 1.80101 4.52254 1.80165L4.52809 1.8146C4.52899 1.8167 4.53028 1.81861 4.5319 1.82022C4.53351 1.82183 4.5348 1.82374 4.5357 1.82584L4.54135 1.83902C4.54156 1.83951 4.54167 1.84004 4.54167 1.84058C4.54167 1.84162 4.54209 1.84263 4.54282 1.84337L4.54334 1.84388C4.54385 1.84439 4.54426 1.845 4.54454 1.84566L4.55102 1.86078C4.5513 1.86142 4.55144 1.86212 4.55144 1.86282C4.55144 1.86372 4.55168 1.86461 4.55213 1.8654L4.56053 1.88011C4.56098 1.88089 4.56122 1.88178 4.56122 1.88268C4.56122 1.88338 4.56136 1.88408 4.56164 1.88473L4.56823 1.9001C4.56844 1.9006 4.56855 1.90112 4.56855 1.90166C4.56855 1.9027 4.56896 1.90371 4.5697 1.90445L4.57015 1.9049C4.5707 1.90545 4.57113 1.90611 4.57141 1.90685L4.57797 1.92435C4.57818 1.92491 4.57872 1.92528 4.57932 1.92528C4.58012 1.92528 4.58076 1.92593 4.58076 1.92673V1.92743C4.58076 1.92762 4.58079 1.92782 4.58084 1.92801L4.58528 1.94355C4.58552 1.94439 4.58597 1.94515 4.58659 1.94577L4.58759 1.94677C4.58791 1.94709 4.58809 1.94753 4.58809 1.94799V1.94832C4.58809 1.94909 4.58872 1.94971 4.58948 1.94971C4.59011 1.94971 4.59065 1.95013 4.59082 1.95072L4.59506 1.96554C4.5953 1.96638 4.59575 1.96714 4.59636 1.96776L4.59676 1.96816C4.59747 1.96887 4.59787 1.96982 4.59787 1.97082C4.59787 1.9714 4.598 1.97198 4.59826 1.9725L4.6041 1.98418C4.60482 1.98562 4.6052 1.9872 4.6052 1.98881V1.99149C4.6052 1.9929 4.60575 1.99425 4.60675 1.99525C4.60733 1.99583 4.60777 1.99654 4.60803 1.99733L4.61213 2.00961C4.61239 2.01039 4.61283 2.0111 4.61341 2.01168L4.61368 2.01195C4.6145 2.01278 4.61497 2.0139 4.61497 2.01507C4.61497 2.01548 4.61503 2.01588 4.61514 2.01628L4.61968 2.03219C4.6198 2.03259 4.61985 2.03299 4.61985 2.0334C4.61985 2.03457 4.62032 2.03569 4.62115 2.03652L4.62136 2.03673C4.62197 2.03735 4.62242 2.03811 4.62266 2.03895L4.62682 2.0535C4.62706 2.05434 4.62751 2.0551 4.62812 2.05572L4.62847 2.05606C4.62921 2.0568 4.62963 2.05781 4.62963 2.05885C4.62963 2.05939 4.62974 2.05992 4.62995 2.06041L4.63581 2.0741C4.63657 2.07586 4.63696 2.07775 4.63696 2.07967C4.63696 2.08098 4.63714 2.08229 4.6375 2.08356L4.64176 2.09847C4.64182 2.09866 4.64184 2.09886 4.64184 2.09906V2.09983C4.64184 2.10058 4.64246 2.1012 4.64322 2.1012C4.64385 2.1012 4.64439 2.10163 4.64455 2.10224C4.64935 2.12135 4.65415 2.1382 4.65895 2.15739C4.66581 2.17799 4.67053 2.19644 4.67311 2.21074C4.67345 2.21263 4.67404 2.21446 4.6749 2.21617C4.67566 2.2177 4.67622 2.21932 4.67655 2.221L4.67831 2.22977C4.67843 2.23038 4.67849 2.23101 4.67849 2.23163V2.23366C4.67849 2.23489 4.67898 2.23607 4.67985 2.23693C4.68055 2.23764 4.68101 2.23856 4.68115 2.23955L4.68333 2.25477C4.68336 2.25501 4.68338 2.25524 4.68338 2.25548V2.25584C4.68338 2.25695 4.68382 2.25801 4.6846 2.25879C4.68538 2.25957 4.68582 2.26063 4.68582 2.26174V2.26184C4.68582 2.26225 4.68588 2.26265 4.68599 2.26305L4.69004 2.27721C4.69048 2.27877 4.69071 2.28038 4.69071 2.282C4.69071 2.28363 4.69083 2.28525 4.69106 2.28686L4.69284 2.29934C4.69305 2.3008 4.69349 2.30222 4.69415 2.30354L4.69476 2.30475C4.69531 2.30586 4.6956 2.30708 4.6956 2.30831C4.6956 2.30869 4.69562 2.30906 4.69568 2.30944L4.69799 2.32563C4.69802 2.32586 4.69804 2.3261 4.69804 2.32634V2.3267C4.69804 2.3278 4.69848 2.32886 4.69926 2.32964C4.70004 2.33043 4.70048 2.33149 4.70048 2.33259V2.33295C4.70048 2.33319 4.7005 2.33343 4.70053 2.33366L4.7029 2.35025C4.70292 2.35036 4.70293 2.35047 4.70293 2.35057V2.35153C4.70293 2.35226 4.70352 2.35286 4.70425 2.35286C4.7049 2.35286 4.70545 2.35332 4.70555 2.35396C4.70793 2.36825 4.71026 2.38254 4.71026 2.39684C4.71026 2.39844 4.71063 2.40003 4.71135 2.40146L4.71189 2.40255C4.71242 2.40361 4.7127 2.40478 4.7127 2.40597C4.7127 2.4064 4.71273 2.40682 4.7128 2.40723L4.71474 2.41886C4.71501 2.42046 4.71514 2.42209 4.71514 2.42371V2.42615L4.71759 2.4457V2.44814L4.72003 2.47013V2.47258L4.72247 2.49212L4.72492 2.51167V2.51656C4.72492 2.51818 4.72511 2.5198 4.72551 2.52137L4.72736 2.52877C4.73225 2.54588 4.73958 2.56053 4.74446 2.57519C4.75912 2.61917 4.76645 2.66315 4.76645 2.70958V14.5424V16.5019V17.9337C4.76645 18.007 4.78111 18.0754 4.80554 18.1389C4.83242 18.2049 4.87396 18.2635 4.92526 18.3148C5.023 18.4125 5.15738 18.4736 5.30642 18.4736C5.37971 18.4736 5.44813 18.459 5.51165 18.4321C5.57518 18.4052 5.63626 18.3661 5.68757 18.3148C5.7853 18.2171 5.84638 18.0827 5.84638 17.9337V16.8928C5.84638 16.8782 5.84394 16.8586 5.84394 16.8391C5.84638 16.8097 5.84638 16.7878 5.84638 16.7731C5.84882 16.7365 5.85371 16.7047 5.8586 16.6729C5.86593 16.6387 5.8757 16.6045 5.88792 16.5703C5.90502 16.519 5.92701 16.4726 5.95144 16.431C5.97811 16.3874 6.00718 16.3486 6.04342 16.3122C6.04398 16.3116 6.04429 16.3109 6.04429 16.3101C6.04429 16.3093 6.0446 16.3086 6.04515 16.308L6.04917 16.304L6.06139 16.2893C6.1298 16.2209 6.21043 16.1672 6.30328 16.1305C6.39123 16.0939 6.48652 16.0719 6.58425 16.0719H6.62707C6.62771 16.0719 6.62823 16.0724 6.62823 16.073C6.62823 16.0737 6.62883 16.0743 6.62951 16.0742C6.65326 16.0719 6.6699 16.0719 6.6771 16.0719C6.68431 16.0719 6.70099 16.0719 6.72713 16.0742C6.72781 16.0743 6.72841 16.0737 6.72841 16.073C6.72841 16.0724 6.72893 16.0719 6.72957 16.0719H6.73329H14.1218C15.0839 16.0719 15.8638 15.2919 15.8638 14.3298C15.8638 14.2205 15.9352 14.1223 16.0398 14.0904L16.3965 13.978C16.558 13.9286 16.7239 14.0486 16.7239 14.2174V15.7371C16.7239 15.922 16.8737 16.0719 17.0586 16.0719C17.1563 16.0719 17.2516 16.0939 17.3396 16.1305C17.4324 16.1672 17.513 16.2209 17.5815 16.2893L17.7391 16.4492C17.7492 16.4594 17.7492 16.4759 17.739 16.4861C17.731 16.4941 17.7291 16.5062 17.7339 16.5164C17.736 16.521 17.7381 16.5259 17.7403 16.5312C17.7769 16.6167 17.7965 16.712 17.7965 16.8122V18.0485C17.7965 18.2195 17.7623 18.3857 17.6987 18.5396C17.6328 18.696 17.5375 18.8377 17.4202 18.955C17.3029 19.0747 17.1612 19.17 17.0024 19.2359C16.8509 19.2995 16.6848 19.3337 16.5113 19.3337H6.58425H5.30642C5.11828 19.3337 4.93748 19.2946 4.77134 19.2262C4.60031 19.1553 4.44638 19.0502 4.31689 18.9232C4.18739 18.7937 4.08478 18.6398 4.01392 18.4687C3.94307 18.3026 3.90642 18.1218 3.90642 17.9337V16.5019V14.5424V7.51307ZM14.7424 13.7043C15.0062 13.7043 15.2457 13.8118 15.4192 13.9829C15.5902 14.1563 15.6977 14.3958 15.6977 14.6597C15.6977 14.9235 15.5902 15.1605 15.4192 15.334C15.2457 15.5075 15.0062 15.615 14.7424 15.615C14.4785 15.615 14.2415 15.5075 14.068 15.334C13.8945 15.1605 13.7895 14.9235 13.7895 14.6597C13.7895 14.3958 13.8945 14.1563 14.068 13.9829C14.2415 13.8118 14.4785 13.7043 14.7424 13.7043ZM5.87814 5.81732C5.87814 5.84993 5.88059 5.88255 5.88059 5.91516V7.10992C5.88059 7.22964 5.83172 7.33715 5.75598 7.41533C5.6778 7.49352 5.57029 7.53994 5.45057 7.53994C5.33329 7.53994 5.22579 7.49352 5.1476 7.41533C5.06942 7.33471 5.02055 7.2272 5.02055 7.10992V6.02766C5.02055 5.99505 5.01811 5.96243 5.01811 5.92982V5.05024C5.01811 4.93096 5.06662 4.82623 5.1443 4.74814C5.14485 4.74758 5.14516 4.74683 5.14516 4.74605C5.14516 4.74527 5.14547 4.74452 5.14603 4.74397C5.22414 4.6663 5.33128 4.62022 5.44813 4.62022C5.5654 4.62022 5.67291 4.66664 5.75109 4.74483C5.82928 4.82301 5.87814 4.93052 5.87814 5.05024V5.81732ZM3.50328 13.8338C3.50328 13.8427 3.50302 13.8515 3.50251 13.8602C3.49265 14.0287 3.48617 14.227 3.48617 14.3958V16.7731C3.48617 16.8928 3.43731 17.0003 3.35912 17.0761C3.28094 17.1543 3.17343 17.2031 3.05615 17.2031C2.93888 17.2031 2.83137 17.1543 2.75319 17.0761C2.675 16.9979 2.62614 16.8904 2.62614 16.7731V14.3958C2.62614 14.387 2.6264 14.3783 2.62693 14.3697C2.6372 14.2014 2.64324 14.0024 2.64324 13.8338V12.8077C2.64324 12.6908 2.69175 12.5837 2.76944 12.5055C2.76998 12.505 2.77029 12.5043 2.77029 12.5035C2.77029 12.5027 2.77061 12.5019 2.77118 12.5014C2.84929 12.4261 2.95642 12.3776 3.07326 12.3776C3.19298 12.3776 3.30048 12.4265 3.37867 12.5022C3.45685 12.5804 3.50328 12.6879 3.50328 12.8077V13.8338ZM10.998 11.8279C10.8484 11.8279 10.7018 11.889 10.5521 11.889H6.39856C6.28129 11.889 6.17378 11.8401 6.0956 11.7619C6.01741 11.6837 5.96855 11.5762 5.96855 11.459C5.96855 11.4467 5.97099 11.437 5.97099 11.4272C5.97099 11.4174 5.96855 11.4077 5.96855 11.3979C5.96855 11.3881 5.97099 11.3783 5.97099 11.3686C5.97099 11.3588 5.96855 11.349 5.96855 11.3392C5.96855 11.222 6.01741 11.1145 6.0956 11.0363C6.17378 10.9581 6.28129 10.9092 6.39856 10.9092H15.038C15.1577 10.9092 15.2652 10.9581 15.341 11.0363C15.4192 11.1145 15.468 11.222 15.468 11.3392C15.468 11.349 15.468 11.3588 15.468 11.3686C15.468 11.3783 15.468 11.3881 15.468 11.3979C15.468 11.5152 15.4192 11.6227 15.341 11.7008C15.2628 11.779 15.1553 11.8279 15.038 11.8279H10.998ZM15.038 4.1169C15.1549 4.1169 15.262 4.16299 15.3401 4.24065C15.3407 4.2412 15.341 4.24195 15.341 4.24273C15.341 4.24352 15.3413 4.24427 15.3418 4.24482C15.4195 4.32292 15.468 4.42764 15.468 4.54692C15.468 4.6642 15.4192 4.7717 15.341 4.84989C15.2652 4.92807 15.1577 4.9745 15.038 4.9745H6.39856C6.28129 4.9745 6.17378 4.92807 6.0956 4.84989C6.01741 4.7717 5.96855 4.6642 5.96855 4.54692C5.96855 4.42764 6.01705 4.32292 6.09473 4.24482C6.09528 4.24427 6.0956 4.24352 6.0956 4.24273C6.0956 4.24195 6.09591 4.2412 6.09646 4.24065C6.17457 4.16299 6.28172 4.1169 6.39856 4.1169H15.038ZM15.038 6.45512C15.1553 6.45512 15.2628 6.50399 15.341 6.58218C15.4192 6.66036 15.468 6.76786 15.468 6.88514C15.468 6.91269 15.468 6.94067 15.468 6.96821C15.468 7.08549 15.4192 7.193 15.341 7.27118C15.2652 7.34937 15.1577 7.39823 15.038 7.39823H6.39856C6.28129 7.39823 6.17378 7.34937 6.0956 7.27118C6.01741 7.193 5.96855 7.08549 5.96855 6.96821C5.96855 6.95355 5.97099 6.94134 5.97099 6.92668C5.97099 6.91446 5.96855 6.8998 5.96855 6.88514C5.96855 6.76786 6.01741 6.66036 6.0956 6.58218C6.17378 6.50399 6.28129 6.45512 6.39856 6.45512H15.038ZM15.038 9.21115C15.1548 9.21115 15.262 9.25964 15.3401 9.3349C15.3407 9.33544 15.341 9.3362 15.341 9.33699C15.341 9.33776 15.3413 9.3385 15.3418 9.33905C15.4195 9.41716 15.468 9.52431 15.468 9.64116C15.468 9.75844 15.4192 9.86594 15.341 9.94413C15.2652 10.0223 15.1577 10.0712 15.038 10.0712H6.39856C6.28129 10.0712 6.17378 10.0223 6.0956 9.94413C6.01741 9.86594 5.96855 9.75844 5.96855 9.64116C5.96855 9.52431 6.01706 9.41716 6.09474 9.33905C6.09529 9.3385 6.0956 9.33776 6.0956 9.33699C6.0956 9.3362 6.09592 9.33544 6.09648 9.3349C6.17459 9.25964 6.28173 9.21115 6.39856 9.21115H15.038ZM15.038 2.52144C15.1553 2.52144 15.2628 2.57031 15.341 2.64849C15.4192 2.72668 15.468 2.83418 15.468 2.95146C15.468 3.07118 15.4192 3.17624 15.341 3.25687C15.2652 3.33506 15.1577 3.38148 15.038 3.38148H10.8869C10.7676 3.38148 10.6604 3.3354 10.5823 3.25774C10.582 3.25742 10.5822 3.25687 10.5827 3.25687C10.5831 3.25687 10.5834 3.25633 10.5831 3.256C10.5054 3.17549 10.4569 3.07075 10.4569 2.95146C10.4569 2.83463 10.5054 2.72749 10.5806 2.64938C10.5812 2.64881 10.5819 2.64849 10.5827 2.64849C10.5835 2.64849 10.5842 2.64819 10.5848 2.64764C10.6629 2.56995 10.77 2.52144 10.8869 2.52144H15.038Z" fill="#A3A3A3"/>
<path d="M22.2117 9.07929C21.2099 10.2521 20.174 11.2221 19.1038 11.9966C18.0263 12.7735 16.9146 13.3575 15.7712 13.7508C15.6392 13.7973 15.4951 13.7264 15.4511 13.5945C15.4291 13.5358 15.4316 13.4748 15.4536 13.421C16.145 11.3125 17.0563 9.40914 18.1778 7.70861C18.1827 7.70128 18.1876 7.69395 18.1925 7.68662C18.2804 7.55469 18.3708 7.42031 18.4612 7.29081C19.7195 5.4779 21.2246 3.90442 22.9691 2.56062C23.0815 2.47511 23.2378 2.49709 23.3234 2.60704C23.3625 2.65591 23.3796 2.71455 23.3771 2.77319C23.3625 3.09081 23.3649 3.44509 23.3649 3.81647C23.3722 5.14805 23.3796 6.67022 22.7077 7.39099C22.5787 7.52999 22.4182 7.64456 22.2347 7.7387C21.9395 7.89011 21.8767 8.52316 22.1555 8.70303C22.2728 8.77877 22.307 8.93514 22.2312 9.05242C22.2239 9.06219 22.219 9.07196 22.2117 9.07929ZM18.8057 11.5861C19.4447 11.1241 20.0721 10.5901 20.6864 9.98252C21.1873 9.48709 21.0245 8.67671 20.345 8.49046C20.1575 8.43829 19.9637 8.3902 19.7647 8.34546C19.0117 8.17616 18.2397 8.52508 17.8581 9.19602C17.6662 9.53354 17.4818 9.87847 17.3052 10.2308C16.7607 11.3169 17.8208 12.2974 18.8057 11.5861ZM18.8766 7.57668C18.866 7.59154 18.8755 7.61225 18.8937 7.61329C20.0185 7.6777 21.7233 7.70775 22.3387 7.04648C22.8738 6.47231 22.8665 5.05521 22.8616 3.81891C22.8616 3.60926 22.615 3.4922 22.4553 3.62803C21.0956 4.7847 19.902 6.09968 18.8766 7.57668Z" fill="#A3A3A3"/>
</svg>
