<svg width="27" height="17" viewBox="0 0 27 17" fill="none" xmlns="http://www.w3.org/2000/svg">
<path d="M6.50337 15.2725L5.35889 11.5776H6.02922L6.63416 13.7185L6.84671 14.5113C6.86306 14.4638 6.92846 14.21 7.05926 13.7502L7.64785 11.5776H8.31818L8.89042 13.7343L9.08662 14.4321L9.29917 13.7185L9.95315 11.5776H10.5908L9.38091 15.2725H8.72693L8.12199 13.0683L7.95849 12.434L7.19005 15.2725H6.50337Z" fill="#A3A3A3"/>
<path d="M10.885 13.4332C10.885 12.7513 11.0812 12.2439 11.4736 11.9108C11.8006 11.6413 12.193 11.4985 12.6671 11.4985C13.1903 11.4985 13.6154 11.673 13.9588 12.006C14.2857 12.339 14.4492 12.7989 14.4492 13.3856C14.4492 13.8455 14.3838 14.2261 14.2367 14.4957C14.0896 14.7653 13.877 14.9873 13.5991 15.13C13.3048 15.2886 13.0105 15.352 12.6671 15.352C12.1439 15.352 11.7025 15.1934 11.3755 14.8604C11.0485 14.5274 10.885 14.0517 10.885 13.4332ZM11.539 13.4332C11.539 13.9089 11.6534 14.2578 11.866 14.4957C12.0785 14.7336 12.3401 14.8446 12.6671 14.8446C12.9941 14.8446 13.2557 14.7336 13.4683 14.4957C13.6808 14.2578 13.7953 13.8931 13.7953 13.4173C13.7953 12.9575 13.6808 12.6086 13.4683 12.3707C13.2557 12.1329 12.9941 12.0218 12.6671 12.0218C12.3401 12.0218 12.0785 12.1329 11.866 12.3707C11.6534 12.6086 11.539 12.9575 11.539 13.4332Z" fill="#A3A3A3"/>
<path d="M15.2014 15.2727V11.5778H15.79V12.1487C15.9372 11.8791 16.068 11.7047 16.1987 11.6254C16.3295 11.5461 16.4603 11.4985 16.6075 11.4985C16.8364 11.4985 17.0489 11.562 17.2778 11.7047L17.0489 12.2756C16.8854 12.1963 16.7383 12.1487 16.5748 12.1487C16.444 12.1487 16.3132 12.1963 16.1987 12.2756C16.0843 12.3549 16.0026 12.4659 15.9535 12.6244C15.8881 12.8465 15.8554 13.0843 15.8554 13.3539V15.2727H15.2014Z" fill="#A3A3A3"/>
<path d="M20.1229 15.2725V14.8126C19.8776 15.1774 19.5179 15.3518 19.0601 15.3518C18.7495 15.3518 18.4716 15.2725 18.2263 15.1139C17.9647 14.9554 17.7685 14.7334 17.6214 14.432C17.4906 14.1466 17.4252 13.8136 17.4252 13.433C17.4252 13.0683 17.4742 12.7353 17.605 12.434C17.7358 12.1327 17.932 11.8948 18.1773 11.7362C18.4225 11.5776 18.7168 11.4983 19.0274 11.4983C19.2563 11.4983 19.4689 11.5459 19.6324 11.6411C19.8122 11.7362 19.9594 11.8631 20.0738 12.0058V10.1821H20.7278V15.2725H20.1229ZM18.0792 13.433C18.0792 13.9087 18.1773 14.2576 18.3898 14.4955C18.586 14.7334 18.8312 14.8444 19.1255 14.8444C19.4035 14.8444 19.6487 14.7334 19.8449 14.5113C20.0411 14.2893 20.1392 13.9405 20.1392 13.4806C20.1392 12.989 20.0411 12.6084 19.8286 12.3705C19.6324 12.1327 19.3871 12.0216 19.0928 12.0216C18.7985 12.0216 18.5533 12.1327 18.3735 12.3547C18.1773 12.5925 18.0792 12.9414 18.0792 13.433Z" fill="#A3A3A3"/>
<path fill-rule="evenodd" clip-rule="evenodd" d="M5.32629 7.50078C2.54684 7.19948 0.666626 9.75261 0.666626 12.2423C0.666626 14.8747 2.56319 16.9997 4.9012 16.9997H22.3954H22.4608C24.7007 16.9997 26.5155 15.1126 26.5155 12.7815C26.5155 10.5931 24.9132 8.80113 22.8532 8.59498C22.3463 5.66127 19.992 3.45702 17.1798 3.45702C16.8038 3.45702 16.4441 3.48873 16.1007 3.56802C15.1034 1.63336 13.2232 0.333008 11.0487 0.333008C7.22286 0.333008 4.9012 4.09133 5.32629 7.50078ZM6.16012 8.40469C5.78408 5.66127 7.82779 2.61655 11.1958 2.61655C13.0924 2.61655 14.7437 3.67903 15.6266 5.2331C15.9209 5.16967 16.2479 5.13796 16.5749 5.13796C19.0437 5.13796 21.1201 6.9299 21.5615 9.29273C23.36 9.46716 24.7661 10.9102 24.7661 12.6863C24.7661 14.5576 23.1802 16.0958 21.2182 16.0958H21.1691H5.78408C3.72402 16.0958 2.05635 14.3673 2.05635 12.2423C2.05635 10.2283 3.72402 8.16682 6.16012 8.40469Z" fill="#A3A3A3"/>
</svg>
