<svg width="20" height="20" viewBox="0 0 20 20" fill="none" xmlns="http://www.w3.org/2000/svg">
<path d="M6.47 11.333C6.47 9.38344 8.05044 7.80301 10 7.80301C11.9496 7.80301 13.53 9.38344 13.53 11.333V14.1963H6.47V11.333Z" stroke="#9B9B9B" stroke-width="0.94"/>
<path d="M7.13663 3.33333C7.13663 1.75196 8.41858 0.47 9.99996 0.47C11.5813 0.47 12.8633 1.75196 12.8633 3.33333C12.8633 4.91471 11.5813 6.19667 9.99996 6.19667C8.41858 6.19667 7.13663 4.91471 7.13663 3.33333Z" stroke="#9B9B9B" stroke-width="0.94"/>
<path d="M0.591094 11.9387C0.591094 10.3908 1.84592 9.13602 3.39382 9.13602C4.94172 9.13602 6.19655 10.3908 6.19655 11.9387V14.196H0.591094V11.9387Z" stroke="#9B9B9B" stroke-width="0.94"/>
<path d="M1.1365 5.39329C1.1365 4.14663 2.14712 3.13602 3.39378 3.13602C4.64043 3.13602 5.65105 4.14663 5.65105 5.39329C5.65105 6.63995 4.64043 7.65056 3.39378 7.65056C2.14712 7.65056 1.1365 6.63995 1.1365 5.39329Z" stroke="#9B9B9B" stroke-width="0.94"/>
<path d="M13.803 11.9387C13.803 10.3908 15.0578 9.13602 16.6057 9.13602C18.1536 9.13602 19.4085 10.3908 19.4085 11.9387V14.196H13.803V11.9387Z" stroke="#9B9B9B" stroke-width="0.94"/>
<path d="M14.3484 5.39329C14.3484 4.14663 15.359 3.13602 16.6057 3.13602C17.8523 3.13602 18.863 4.14663 18.863 5.39329C18.863 6.63995 17.8523 7.65056 16.6057 7.65056C15.359 7.65056 14.3484 6.63995 14.3484 5.39329Z" stroke="#9B9B9B" stroke-width="0.94"/>
<path d="M0.47 17.6668C0.47 16.6377 1.30424 15.8035 2.33333 15.8035H17.6667C18.6958 15.8035 19.53 16.6377 19.53 17.6668C19.53 18.6959 18.6958 19.5302 17.6667 19.5302H2.33333C1.30424 19.5302 0.47 18.6959 0.47 17.6668Z" stroke="#9B9B9B" stroke-width="0.94"/>
<path d="M0 17.6668C0 16.3782 1.04467 15.3335 2.33333 15.3335H13.3333V20.0002H2.33333C1.04467 20.0002 0 18.9555 0 17.6668Z" fill="#9B9B9B"/>
</svg>
