<svg width="24" height="19" viewBox="0 0 24 19" fill="none" xmlns="http://www.w3.org/2000/svg">
<path fill-rule="evenodd" clip-rule="evenodd" d="M12.7884 10.0888C13.0482 8.88725 14.1737 8.89914 14.285 8.86345C14.3468 8.7088 14.3221 8.57794 14.3715 8.42329C14.5447 7.75709 15.262 7.26934 16.0412 7.36451C16.2639 7.4002 16.3628 7.47158 16.5483 7.50726C16.7215 6.46038 18.0696 5.98453 18.7869 6.51986C20.3948 7.68571 22.4478 9.0419 23.1157 10.9215L23.3631 11.8376C23.462 12.5513 23.3631 13.4436 22.9426 14.2525C22.621 14.2049 22.3984 14.0265 22.25 13.7529C22.5097 13.2056 22.621 12.5513 22.5344 12.0279C22.5344 12.016 22.5344 12.0041 22.5344 11.9922C22.25 10.3862 21.2605 9.26793 19.9619 8.32812C19.5661 8.03071 18.5148 7.18606 18.1191 7.12658C17.513 7.03141 17.0183 7.82847 17.6862 8.34001C17.8222 8.43518 18.4901 8.76828 18.1562 9.18466C17.5254 9.99361 16.1525 7.34072 15.2868 8.43518C15.1631 8.60173 15.1507 8.85156 15.1878 8.99431C15.3239 9.55344 16.9565 9.95792 16.4617 10.5765C15.9794 11.1951 15.0394 9.81516 14.4458 9.6962C13.8274 9.58913 13.3697 10.2315 13.7531 10.7193C14.3221 11.4331 15.8804 11.9089 15.4476 12.4681C15.0889 12.9201 14.5571 12.3253 13.7531 11.7424C13.2584 11.3855 10.4509 9.29172 10.1664 9.17276C9.51093 8.92294 8.9791 9.55344 9.27593 10.0769C9.41198 10.3267 14.4334 13.9075 15.4599 14.6451C15.8804 14.9425 16.0412 15.0972 15.7691 15.4422C15.6455 15.5968 15.3363 15.5849 15.1631 15.4541L9.06568 11.0167C8.3236 10.4814 8.13808 9.56534 8.58333 9.00621L8.76885 8.76828C9.16462 8.26863 10.117 8.17346 10.6364 8.51846C11.3414 8.98242 12.0958 9.57724 12.7884 10.0888ZM20.1845 17.762C19.1085 18.7256 17.9335 18.8326 16.437 18.4876C16.066 18.4044 15.596 18.2259 15.2373 18.0594C14.1737 17.5835 13.1719 16.834 12.7513 16.6556C12.3432 16.4652 11.1311 16.4296 10.8961 15.2161C10.7106 14.2049 11.663 13.1699 12.1948 13.5506C12.64 13.8718 11.9969 14.312 11.8361 14.5142C11.5887 14.8235 11.6011 15.5373 12.504 15.7277C12.9863 15.8228 13.6913 16.1797 14.0995 16.4652C15.596 17.5359 17.9583 18.5352 19.5043 17.2623C19.9248 17.179 20.1474 17.3575 20.1845 17.762Z" fill="#A3A3A3"/>
<path d="M9.37487 12.0161C9.54802 12.0161 9.68407 12.147 9.68407 12.3135C9.68407 12.4801 9.54802 12.6109 9.37487 12.6109C8.4349 12.6109 7.58151 12.2421 6.96311 11.6473C6.34471 11.0525 5.9613 10.2317 5.9613 9.32753C5.9613 8.41151 6.34471 7.59065 6.96311 6.99583C7.58151 6.40101 8.4349 6.03223 9.37487 6.03223C10.3148 6.03223 11.1682 6.40101 11.7866 6.99583C12.405 7.59065 12.7884 8.41151 12.7884 9.32753C12.7884 9.48218 12.6524 9.62494 12.4792 9.62494C12.3185 9.62494 12.17 9.48218 12.17 9.32753C12.17 8.57806 11.8608 7.89996 11.3537 7.41221C10.8467 6.92446 10.1541 6.62705 9.37487 6.62705C8.59569 6.62705 7.90308 6.92446 7.39599 7.41221C6.8889 7.89996 6.5797 8.57806 6.5797 9.32753C6.5797 10.0651 6.8889 10.7432 7.39599 11.231C7.90308 11.7187 8.59569 12.0161 9.37487 12.0161Z" fill="#A3A3A3"/>
<path d="M5.82558 1.5949C5.80084 1.52352 5.82558 1.46404 5.88742 1.42835C5.94926 1.40456 6.02346 1.44025 6.0482 1.49973L6.24609 1.9399C6.27082 1.99938 6.23372 2.07076 6.17188 2.09455C6.11004 2.11834 6.03583 2.09455 6.0111 2.02317L5.82558 1.5949ZM4.47746 7.5431C4.41562 7.5193 4.37852 7.44793 4.40326 7.38844C4.42799 7.32896 4.5022 7.29327 4.56404 7.31706L5.03402 7.48361C5.09586 7.50741 5.1206 7.57879 5.09586 7.63827C5.0835 7.69775 5.00929 7.73344 4.94745 7.70965L4.47746 7.5431ZM5.64006 7.95947C5.57822 7.93568 5.54111 7.8643 5.56585 7.80482C5.59058 7.74534 5.66479 7.70965 5.72663 7.73344L6.18425 7.89999C6.24609 7.92378 6.28319 7.99516 6.25846 8.05464C6.23372 8.11412 6.15951 8.14981 6.09767 8.12602L5.64006 7.95947ZM8.15076 6.31777C8.1755 6.37725 8.13839 6.44863 8.07655 6.47242C8.01471 6.49621 7.9405 6.47242 7.91577 6.41294L7.73025 5.98467C7.70551 5.91329 7.73025 5.85381 7.80446 5.81812C7.8663 5.79433 7.92814 5.83002 7.96524 5.8895L8.15076 6.31777ZM7.66841 5.2233C7.70551 5.29468 7.66841 5.35416 7.60657 5.38985C7.54473 5.41364 7.47052 5.37795 7.44578 5.31847L7.26026 4.8783C7.22316 4.81882 7.26026 4.74744 7.3221 4.72365C7.38394 4.69986 7.45815 4.73555 7.48289 4.79503L7.66841 5.2233ZM7.19842 4.12883C7.22316 4.18831 7.19842 4.25969 7.12422 4.28348C7.06238 4.30728 7.00054 4.28348 6.96343 4.224L6.77791 3.78384C6.75318 3.72435 6.77791 3.65298 6.83975 3.62918C6.90159 3.60539 6.9758 3.62918 7.00054 3.68867L7.19842 4.12883ZM6.71607 3.03436C6.74081 3.09385 6.71607 3.16522 6.65423 3.18902C6.59239 3.21281 6.51818 3.18902 6.49345 3.12954L6.29556 2.68937C6.27082 2.62989 6.30793 2.55851 6.36977 2.53472C6.43161 2.51092 6.50582 2.53472 6.53055 2.5942L6.71607 3.03436Z" fill="#A3A3A3"/>
<path d="M2.2882 12.6583C2.22636 12.694 2.15215 12.6702 2.12742 12.6107C2.09031 12.5513 2.11505 12.4799 2.17689 12.4442L2.62214 12.2301C2.68398 12.2063 2.75819 12.2301 2.78292 12.2895C2.82003 12.349 2.79529 12.4204 2.73345 12.4442L2.2882 12.6583ZM5.92439 10.6121C5.98623 10.5884 6.06044 10.6121 6.08518 10.6716C6.12228 10.7311 6.09755 10.8025 6.03571 10.8263L5.59046 11.0404C5.52862 11.0761 5.45441 11.0523 5.42967 10.9928C5.39257 10.9333 5.41731 10.862 5.47915 10.8263L5.92439 10.6121ZM4.82364 11.1594C4.88548 11.1237 4.95969 11.1475 4.98443 11.207C5.02153 11.2664 4.99679 11.3378 4.93495 11.3616L4.48971 11.5876C4.42787 11.6114 4.35366 11.5876 4.32892 11.5282C4.29182 11.4687 4.31655 11.3973 4.37839 11.3735L4.82364 11.1594ZM3.72289 11.6947C3.78473 11.659 3.85894 11.6828 3.88367 11.7423C3.92078 11.8018 3.89604 11.8732 3.8342 11.9089L3.38895 12.123C3.32711 12.1468 3.25291 12.123 3.22817 12.0754C3.19107 12.0159 3.2158 11.9445 3.27764 11.9089L3.72289 11.6947Z" fill="#A3A3A3"/>
<path d="M9.05334 5.27095C9.05334 5.19957 9.10282 5.14009 9.16466 5.14009C9.23886 5.14009 9.3007 5.18768 9.3007 5.25906L9.31307 5.73491C9.31307 5.79439 9.2636 5.85388 9.18939 5.85388C9.12755 5.85388 9.06571 5.80629 9.06571 5.74681L9.05334 5.27095ZM12.3803 3.66494C12.4174 3.60546 12.4916 3.58167 12.5535 3.61735C12.6153 3.65304 12.6277 3.72442 12.603 3.7839L12.3556 4.18838C12.3185 4.24786 12.2443 4.27166 12.1824 4.23597C12.1206 4.20028 12.1082 4.1289 12.133 4.06942L12.3803 3.66494ZM11.7619 4.68803C11.799 4.64044 11.8732 4.61665 11.9351 4.65234C11.9969 4.67613 12.0093 4.75941 11.9846 4.80699L11.7248 5.22337C11.7001 5.28285 11.6259 5.29475 11.564 5.27095C11.5022 5.23526 11.4775 5.16389 11.5146 5.1044L11.7619 4.68803ZM11.1435 5.72302C11.1806 5.66353 11.2548 5.63974 11.3167 5.67543C11.3785 5.71112 11.3909 5.7825 11.3538 5.84198L11.1064 6.24646C11.0817 6.30594 10.9951 6.32973 10.9456 6.29404C10.8838 6.25835 10.8591 6.18698 10.8962 6.12749L11.1435 5.72302Z" fill="#A3A3A3"/>
<path d="M1.2368 11.8496C1.5831 11.8496 1.8923 11.9805 2.11493 12.1946C2.33755 12.4206 2.4736 12.718 2.4736 13.0392C2.4736 13.3723 2.33755 13.6698 2.11493 13.8839C1.8923 14.098 1.5831 14.2289 1.2368 14.2289C0.902864 14.2289 0.593664 14.098 0.358672 13.8839C0.136048 13.6698 0 13.3723 0 13.0392C0 12.718 0.136048 12.4206 0.358672 12.1946C0.593664 11.9805 0.902864 11.8496 1.2368 11.8496ZM1.94178 12.3731C1.75626 12.1946 1.5089 12.0875 1.2368 12.0875C0.964704 12.0875 0.717344 12.1946 0.531824 12.3731C0.358672 12.5396 0.24736 12.7775 0.24736 13.0392C0.24736 13.301 0.358672 13.5389 0.531824 13.7173C0.717344 13.8839 0.964704 13.991 1.2368 13.991C1.5089 13.991 1.75626 13.8839 1.94178 13.7173C2.11493 13.5389 2.22624 13.301 2.22624 13.0392C2.22624 12.7775 2.11493 12.5396 1.94178 12.3731Z" fill="#A3A3A3"/>
<path d="M4.04414 6.6748C4.20493 6.6748 4.35334 6.74618 4.46465 6.85325C4.57597 6.94842 4.65017 7.10307 4.65017 7.25773C4.65017 7.42428 4.57597 7.56703 4.46465 7.6741C4.35334 7.78117 4.20493 7.84065 4.04414 7.84065C3.87099 7.84065 3.72257 7.78117 3.61126 7.6741C3.49995 7.56703 3.43811 7.42428 3.43811 7.25773C3.43811 7.10307 3.49995 6.94842 3.61126 6.85325C3.72257 6.74618 3.87099 6.6748 4.04414 6.6748ZM4.2915 7.0198C4.22966 6.94842 4.14309 6.91273 4.04414 6.91273C3.9452 6.91273 3.84625 6.94842 3.78441 7.0198C3.72257 7.07928 3.68547 7.16256 3.68547 7.25773C3.68547 7.3529 3.72257 7.43617 3.78441 7.50755C3.84625 7.56703 3.9452 7.60272 4.04414 7.60272C4.14309 7.60272 4.22966 7.56703 4.2915 7.50755C4.35334 7.43617 4.40281 7.3529 4.40281 7.25773C4.40281 7.16256 4.35334 7.07928 4.2915 7.0198Z" fill="#A3A3A3"/>
<path d="M5.77596 1.69008C5.62755 1.69008 5.50387 1.6306 5.40492 1.54733C5.30598 1.45215 5.24414 1.32129 5.24414 1.17854C5.24414 1.03578 5.30598 0.90492 5.40492 0.821645C5.50387 0.726474 5.62755 0.666992 5.77596 0.666992C5.92438 0.666992 6.06043 0.726474 6.15937 0.821645C6.25832 0.90492 6.30779 1.03578 6.30779 1.17854C6.30779 1.32129 6.25832 1.45215 6.15937 1.54733C6.06043 1.6306 5.92438 1.69008 5.77596 1.69008ZM5.57808 1.38078C5.62755 1.42836 5.70176 1.45215 5.77596 1.45215C5.86254 1.45215 5.92438 1.42836 5.98622 1.38078C6.03569 1.32129 6.06043 1.26181 6.06043 1.17854C6.06043 1.10716 6.03569 1.03578 5.98622 0.988195C5.92438 0.940609 5.86254 0.90492 5.77596 0.90492C5.70176 0.90492 5.62755 0.940609 5.57808 0.988195C5.5286 1.03578 5.4915 1.10716 5.4915 1.17854C5.4915 1.26181 5.5286 1.32129 5.57808 1.38078Z" fill="#A3A3A3"/>
<path d="M9.17716 5.37782C8.78138 5.37782 8.41034 5.22316 8.15061 4.97334C7.89089 4.72351 7.7301 4.37852 7.7301 3.99783C7.7301 3.60525 7.89089 3.26026 8.15061 3.01043C8.41034 2.76061 8.78138 2.60596 9.17716 2.60596C9.57294 2.60596 9.93161 2.76061 10.1913 3.01043C10.4511 3.26026 10.6118 3.60525 10.6118 3.99783C10.6118 4.37852 10.4511 4.72351 10.1913 4.97334C9.93161 5.22316 9.57294 5.37782 9.17716 5.37782ZM8.32377 4.80679C8.54639 5.00903 8.84322 5.13989 9.17716 5.13989C9.49873 5.13989 9.80793 5.00903 10.0182 4.80679C10.2408 4.59265 10.3645 4.30714 10.3645 3.99783C10.3645 3.67663 10.2408 3.39112 10.0182 3.17698C9.80793 2.97475 9.49873 2.84388 9.17716 2.84388C8.84322 2.84388 8.54639 2.97475 8.32377 3.17698C8.11351 3.39112 7.97746 3.67663 7.97746 3.99783C7.97746 4.30714 8.11351 4.59265 8.32377 4.80679Z" fill="#A3A3A3"/>
<path d="M13.1842 1.48779C13.4934 1.48779 13.7779 1.61865 13.9758 1.809C14.186 2.01123 14.3097 2.27295 14.3097 2.57036C14.3097 2.87967 14.186 3.14139 13.9758 3.34363C13.7779 3.53397 13.4934 3.66483 13.1842 3.66483C12.875 3.66483 12.5905 3.53397 12.3803 3.34363C12.1824 3.14139 12.0587 2.87967 12.0587 2.57036C12.0587 2.27295 12.1824 2.01123 12.3803 1.809C12.5905 1.61865 12.875 1.48779 13.1842 1.48779ZM13.8026 1.97554C13.6418 1.82089 13.4316 1.72572 13.1842 1.72572C12.9368 1.72572 12.7142 1.82089 12.5658 1.97554C12.405 2.1302 12.3061 2.34433 12.3061 2.57036C12.3061 2.80829 12.405 3.02243 12.5658 3.17708C12.7142 3.33173 12.9368 3.4269 13.1842 3.4269C13.4316 3.4269 13.6418 3.33173 13.8026 3.17708C13.9634 3.02243 14.0623 2.80829 14.0623 2.57036C14.0623 2.34433 13.9634 2.1302 13.8026 1.97554Z" fill="#A3A3A3"/>
</svg>
