<svg width="21" height="20" viewBox="0 0 21 20" fill="none" xmlns="http://www.w3.org/2000/svg">
<path fill-rule="evenodd" clip-rule="evenodd" d="M10.6782 0.943497L15.381 4.40262L20.0529 7.86174L18.2584 13.4592L16.4948 19.0567H10.6782H4.89256L3.09807 13.4592L1.30359 7.86174L6.00638 4.40262L10.6782 0.943497Z" stroke="#A3A3A3" stroke-width="1.04167"/>
<path d="M10.6779 0.943466V10.346L20.0525 7.86171" stroke="#A3A3A3" stroke-width="1.04167"/>
<path d="M16.4947 19.0566L10.6781 10.3459L4.89246 19.0566" stroke="#A3A3A3" stroke-width="1.04167"/>
<path d="M10.6782 10.3461L1.30359 7.86179" stroke="#A3A3A3" stroke-width="1.04167"/>
<path fill-rule="evenodd" clip-rule="evenodd" d="M10.6784 6.89682L12.3492 8.12323L13.9889 9.34965L13.3702 11.3308L12.7204 13.2805H10.6784H8.63643L8.01765 11.3308L7.36792 9.34965L9.03865 8.12323L10.6784 6.89682Z" stroke="#A3A3A3" stroke-width="1.04167"/>
<path fill-rule="evenodd" clip-rule="evenodd" d="M10.6782 2.83008L16.5567 8.64769L14.2981 15.6603L6.62517 16.2577L4.83069 8.64769L10.6782 2.83008Z" stroke="#A3A3A3" stroke-width="2.08333"/>
</svg>
