<svg width="20" height="15" viewBox="0 0 20 15" fill="none" xmlns="http://www.w3.org/2000/svg">
<path fill-rule="evenodd" clip-rule="evenodd" d="M12.714 9.50873L19.2364 12.2722C19.5484 12.4059 19.645 12.8071 19.4852 13.1042L18.8278 14.3151C18.6681 14.6122 18.2744 14.7534 17.9958 14.5639L12.1197 10.6007C11.2431 11.9119 9.95797 12.8182 8.52795 13.2416C6.91593 13.7208 5.11819 13.5834 3.52103 12.7179C1.92015 11.8488 0.828133 10.4187 0.348983 8.803C-0.130166 7.19098 0.00355037 5.39324 0.872705 3.79237C1.73814 2.1952 3.17188 1.10319 4.7839 0.624038C6.39963 0.144889 8.19737 0.278605 9.79454 1.14776C11.3917 2.0132 12.4874 3.44322 12.9666 5.05895C13.39 6.48897 13.3306 8.06014 12.714 9.50873ZM5.03276 1.45234C3.62874 1.86834 2.38444 2.81921 1.63414 4.20837C0.880133 5.59382 0.761275 7.15384 1.17728 8.55786C1.59329 9.95816 2.54416 11.2025 3.93332 11.9565C5.31876 12.7068 6.87878 12.8256 8.2828 12.4096C9.68311 11.9936 10.9274 11.0427 11.6814 9.6573C12.4317 8.26814 12.5506 6.70812 12.1346 5.30781C11.7186 3.9038 10.7677 2.65949 9.38225 1.9092C7.99308 1.15519 6.43306 1.03633 5.03276 1.45234Z" fill="#A3A3A3"/>
<path d="M11.1393 4.30069H2.49976V5.87185H11.1393V4.30069Z" fill="#A3A3A3"/>
<path d="M6.81953 6.33243H2.49976V7.90359H6.81953V6.33243Z" fill="#A3A3A3"/>
<path d="M8.85127 8.39005H2.49976V9.96121H8.85127V8.39005Z" fill="#A3A3A3"/>
</svg>
